<svg xmlns="http://www.w3.org/2000/svg" width="15px" height="15px" fill="none" focusable="false" viewBox="0 0 32 32">
    <path d="M8.7101 29.6314C8.36465 29.8771 7.98372 30 7.5497 30C7.29283 30 7.0182 29.9149 6.73476 29.7732C6.19444 29.4423 5.91992 28.9224 5.91992 28.2135V18.6952C5.91992 18.4872 5.9819 18.3077 6.11476 18.1659C6.24763 18.0241 6.38936 19958 6.56651 19958C6.77024 19958 6.92962 18.0241 7.06248 18.1659C7.19535 18.3077 7.25743 18.4778 7.25743 18.6952V28.2135C7.25743 28.3648 7.30174 28.4782 7.39032 28.5349C7.55862 28.6577 7.76228 28.6294 7.99258 28.4498L24.5476 16.4078C24.6893 16.3228 24.7601 16.1809 24.7601 15.9919C24.7601 15.8123 24.6804 15.6706 24.5032 15.5855L7.94825 3.54348C7.74452 3.42061 7.55862 3.39217 7.39032 3.45833C7.30174 3.5434 7.25743 3.66629 7.25743 3.82698V13.3453C7.25743 13.5249 7.19535 13.6856 7.06248 13.8274C6.93848 13.9692 6.77024 14.0259 6.56651 14.0259C6.39822 14.0259 6.24763 13.9597 6.11476 13.8274C5.99076 13.6856 5.91992 13.5249 5.91992 13.3453V3.82698C5.91992 3.08971 6.19444 2.56044 6.73476 2.22016C7.33708 1.88934 7.97487 1.92717 8.66577 2.36197L25.265 14.3945C25.8053 14.8199 26.0799 15.3586 26.0799 15.9919C26.0799 16.2943 26.0002 16.5969 25.8407 16.8899C25.6813 17.1829 25.4864 17.4192 25.265 17.5988L8.7101 29.6314Z" fill="currentColor" stroke="currentColor" stroke-width="0.08"></path>
</svg>
