<svg class="tc-blue mr-1" xmlns="http://www.w3.org/2000/svg" width="22px" height="32px" viewBox="0 0 32 32" fill="none" focusable="false">
    <path d="M14.0075 2.40103C12.7448 2.40103 11.6507 2.85248 10.7435 3.76441C9.83625 4.67635 9.38712 5.76667 9.38712 7.04526C9.38712 8.32385 9.83625 9.41463 10.7435 10.3266C11.6507 11.2385 12.7354 11.6895 14.0075 11.6895C15.2795 11.6895 16.3646 11.2385 17.2719 10.3266C18.1791 9.41463 18.6283 8.32385 18.6283 7.04526C18.6283 5.77607 18.1791 4.67635 17.2719 3.76441C16.3646 2.86188 15.2795 2.40103 14.0075 2.40103ZM14.0075 13.1093C12.352 13.1093 10.9305 12.5169 9.75202 11.3324C8.57354 10.1478 7.98417 8.72835 7.98417 7.0549C7.98417 5.38145 8.57354 3.96157 9.75202 2.77699C10.9305 1.59242 12.352 1 14.0075 1C15.1205 1 16.1493 1.29183 17.0846 1.86531C18.0199 2.4388 18.7498 3.18116 19.2548 4.0931C19.7692 5.00503 20.0216 5.99254 20.0216 7.0549C20.0216 8.18307 19.7317 9.2074 19.1612 10.1475C18.5907 11.0877 17.8517 11.8211 16.9444 12.3381C16.0465 12.8458 15.0644 13.1093 14.0075 13.1093ZM4.68275 31C4.50504 31 4.34581 30.9344 4.20551 30.7934C4.06522 30.6524 4 30.4831 4 30.2669V20.5644C4 20.2635 4.14963 20.0379 4.44893 19.8781L24.062 12.7706C25.1843 12.3475 26.1196 12.3758 26.8679 12.8647C27.6255 13.3817 28 14.1812 28 15.2811V30.2104C28 30.3891 27.9343 30.5487 27.794 30.6897C27.6631 30.8307 27.4853 30.8967 27.2702 30.8967C27.0644 30.8967 26.8963 30.8307 26.7747 30.6897C26.6531 30.5487 26.5875 30.3985 26.5875 30.2104V15.2811C26.5875 14.7076 26.4287 14.2939 26.0919 14.0495C25.7272 13.805 25.2124 13.8237 24.5483 14.0963L5.38423 21.0629V30.2573C5.38423 30.4735 5.31856 30.6428 5.17826 30.7838C5.06603 30.9342 4.88852 31 4.68275 31Z" fill="currentColor"></path>
</svg>
