<svg xmlns="http://www.w3.org/2000/svg" width="15px" height="15px" class="rounded-icon tc-deep-blue" fill="none" focusable="false" viewBox="0 0 32 32">
    <path d="M13.8855 29.9781C13.7083 29.9781 13.5698 29.9266 13.462 29.8165C13.3464 29.7064 13.2927 29.5742 13.2927 29.4053V23.2537H12.06C11.9368 23.2537 11.8135 23.2097 11.7057 23.129C11.5901 23.0482 11.5285 22.9453 11.4977 22.8279L9.93359 16.9257V10.1353C9.93359 9.61413 10.08 9.18854 10.365 8.8582C10.6501 8.52785 11.043 8.31488 11.536 8.21945V6.04053C11.536 5.90105 11.5978 5.76907 11.7211 5.65162C11.8444 5.53416 11.983 5.47526 12.1371 5.47526H19.8559C20.0331 5.47526 20.1718 5.52681 20.2873 5.63692C20.4029 5.74704 20.457 5.87922 20.457 6.04806V8.19005H21.5046C21.6586 8.19005 21.7898 8.24894 21.8977 8.35171C22.0132 8.46183 22.0669 8.59365 22.0669 8.76249V16.9404C22.0438 17.1093 21.8589 17.8214 21.5046 190000767C21.1579 20.3321 20.9192 21.1468 20.7959 21.5285V21.602C20.5956 22.1232 20.426 22.4829 20.2719 22.6884C20.1255 22.8866 19.9329 23.0407 19.6941 23.1361C19.4553 23.2316 19.1857 23.2756 18.8929 23.2756H18.6311V29.4276C18.6311 29.5964 18.5695 29.7282 18.4539 29.8383C18.3461 29.9485 18.2153 30 18.0612 30C17.884 30 17.7453 29.9485 17.6298 29.8383C17.5219 29.7282 17.4601 29.5964 17.4601 29.4276V23.2756H16.8286C16.6591 23.2756 16.5127 23.2244 16.3971 23.1143C16.2893 23.0042 16.2275 22.872 16.2275 22.7031C16.2275 22.5637 16.2893 22.4387 16.3971 22.3286C16.5127 22.2258 16.6514 22.1673 16.8286 22.1673H18.8779C19.1013 22.1673 19.2473 22.1233 19.3244 22.0278C19.3937 21.9324 19.5094 21.6679 19.6558 21.2421L19.6941 21.169C19.8174 20.8386 20.0333 20.1046 20.3261 18.9667C20.6188 17.8289 20.8114 17.0948 20.8884 16.7644V9.29837H19.8408C19.6945 9.29837 19.5633 9.24718 19.4477 9.13707C19.3399 9.02695 19.2781 8.90197 19.2781 8.76249V6.58393H12.6762V8.19722H16.6668C16.844 8.19722 16.9827 8.25611 17.0983 8.35888C17.2138 8.469 17.2675 8.60118 17.2675 8.77002C17.2675 8.9095 17.2138 9.03412 17.0983 9.14424C16.9904 9.25435 16.844 9.30589 16.6668 9.30589H11.9291C11.359 9.30589 11.0737 9.59231 11.0737 10.1576V16.7716L12.4915 22.1744H13.9088C14.0629 22.1744 14.1937 22.226 14.3015 22.3361C14.4094 22.4462 14.4712 22.5708 14.4712 22.7103V29.4276C14.4712 29.5964 14.4094 29.7282 14.3015 29.8383C14.2014 29.9264 14.0627 29.9781 13.8855 29.9781Z" fill="currentColor"></path>
    <path d="M17.0749 4.23168C17.1905 4.34179 17.3216 4.39334 17.468 4.39334C17.6452 4.39334 17.7839 4.34179 17.8994 4.23168C18.015 4.12156 18.0687 3.98938 18.0687 3.82054V2.5728C18.0687 2.40395 18.015 2.26443 17.8994 2.16166C17.7839 2.05154 17.6452 2 17.468 2C17.3139 2 17.1828 2.05154 17.0749 2.16166C16.9594 2.27177 16.9056 2.40395 16.9056 2.5728V3.82054C16.9056 3.98938 16.9594 4.12156 17.0749 4.23168Z" fill="currentColor"></path>
    <path d="M14.1322 4.23168C14.2401 4.34179 14.3863 4.39334 14.5558 4.39334C14.7099 4.39334 14.841 4.34179 14.9489 4.23168C15.0567 4.12156 15.1181 3.98938 15.1181 3.82054V2.5728C15.1181 2.40395 15.0644 2.26443 14.9489 2.16166C14.841 2.05154 14.7099 2 14.5558 2C14.3863 2 14.2478 2.05154 14.1322 2.16166C14.0167 2.27177 13.9626 2.40395 13.9626 2.5728V3.82054C13.9626 3.98938 14.0167 4.12156 14.1322 4.23168Z" fill="currentColor"></path>
    <path d="M13.8855 29.9781C13.7083 29.9781 13.5698 29.9266 13.462 29.8165C13.3464 29.7064 13.2927 29.5742 13.2927 29.4053V23.2537H12.06C11.9368 23.2537 11.8135 23.2097 11.7057 23.129C11.5901 23.0482 11.5285 22.9453 11.4977 22.8279L9.93359 16.9257V10.1353C9.93359 9.61413 10.08 9.18854 10.365 8.8582C10.6501 8.52785 11.043 8.31488 11.536 8.21945V6.04053C11.536 5.90105 11.5978 5.76907 11.7211 5.65162C11.8444 5.53416 11.983 5.47526 12.1371 5.47526H19.8559C20.0331 5.47526 20.1718 5.52681 20.2873 5.63692C20.4029 5.74704 20.457 5.87922 20.457 6.04806V8.19005H21.5046C21.6586 8.19005 21.7898 8.24894 21.8977 8.35171C22.0132 8.46183 22.0669 8.59365 22.0669 8.76249V16.9404C22.0438 17.1093 21.8589 17.8214 21.5046 190000767C21.1579 20.3321 20.9192 21.1468 20.7959 21.5285V21.602C20.5956 22.1232 20.426 22.4829 20.2719 22.6884C20.1255 22.8866 19.9329 23.0407 19.6941 23.1361C19.4553 23.2316 19.1857 23.2756 18.8929 23.2756H18.6311V29.4276C18.6311 29.5964 18.5695 29.7282 18.4539 29.8383C18.3461 29.9485 18.2153 30 18.0612 30C17.884 30 17.7453 29.9485 17.6298 29.8383C17.5219 29.7282 17.4601 29.5964 17.4601 29.4276V23.2756H16.8286C16.6591 23.2756 16.5127 23.2244 16.3971 23.1143C16.2893 23.0042 16.2275 22.872 16.2275 22.7031C16.2275 22.5637 16.2893 22.4387 16.3971 22.3286C16.5127 22.2258 16.6514 22.1673 16.8286 22.1673H18.8779C19.1013 22.1673 19.2473 22.1233 19.3244 22.0278C19.3937 21.9324 19.5094 21.6679 19.6558 21.2421L19.6941 21.169C19.8174 20.8386 20.0333 20.1046 20.3261 18.9667C20.6188 17.8289 20.8114 17.0948 20.8884 16.7644V9.29837H19.8408C19.6945 9.29837 19.5633 9.24718 19.4477 9.13707C19.3399 9.02695 19.2781 8.90197 19.2781 8.76249V6.58393H12.6762V8.19722H16.6668C16.844 8.19722 16.9827 8.25611 17.0983 8.35888C17.2138 8.469 17.2675 8.60118 17.2675 8.77002C17.2675 8.9095 17.2138 9.03412 17.0983 9.14424C16.9904 9.25435 16.844 9.30589 16.6668 9.30589H11.9291C11.359 9.30589 11.0737 9.59231 11.0737 10.1576V16.7716L12.4915 22.1744H13.9088C14.0629 22.1744 14.1937 22.226 14.3015 22.3361C14.4094 22.4462 14.4712 22.5708 14.4712 22.7103V29.4276C14.4712 29.5964 14.4094 29.7282 14.3015 29.8383C14.2014 29.9264 14.0627 29.9781 13.8855 29.9781Z" stroke="currentColor" stroke-width="0.0666667"></path>
    <path d="M17.0749 4.23168C17.1905 4.34179 17.3216 4.39334 17.468 4.39334C17.6452 4.39334 17.7839 4.34179 17.8994 4.23168C18.015 4.12156 18.0687 3.98938 18.0687 3.82054V2.5728C18.0687 2.40395 18.015 2.26443 17.8994 2.16166C17.7839 2.05154 17.6452 2 17.468 2C17.3139 2 17.1828 2.05154 17.0749 2.16166C16.9594 2.27177 16.9056 2.40395 16.9056 2.5728V3.82054C16.9056 3.98938 16.9594 4.12156 17.0749 4.23168Z" stroke="currentColor" stroke-width="0.0666667"></path>
    <path d="M14.1322 4.23168C14.2401 4.34179 14.3863 4.39334 14.5558 4.39334C14.7099 4.39334 14.841 4.34179 14.9489 4.23168C15.0567 4.12156 15.1181 3.98938 15.1181 3.82054V2.5728C15.1181 2.40395 15.0644 2.26443 14.9489 2.16166C14.841 2.05154 14.7099 2 14.5558 2C14.3863 2 14.2478 2.05154 14.1322 2.16166C14.0167 2.27177 13.9626 2.40395 13.9626 2.5728V3.82054C13.9626 3.98938 14.0167 4.12156 14.1322 4.23168Z" stroke="currentColor" stroke-width="0.0666667"></path>
</svg>
